<svg width="10" height="18" viewBox="0 0 10 18" fill="none" xmlns="http://www.w3.org/2000/svg">
<path d="M0 8.70207C0 9.03638 0.127827 9.32154 0.393314 9.57719L8.06293 17.0796C8.26942 17.296 8.54474 17.4041 8.85939 17.4041C9.49853 17.4041 10 16.9125 10 16.2635C10 15.9489 9.87217 15.6637 9.65585 15.4474L2.74336 8.70207L9.65585 1.95674C9.87217 1.73058 10 1.44543 10 1.13078C10 0.491642 9.49853 0 8.85939 0C8.54474 0 8.26942 0.108161 8.06293 0.324484L0.393314 7.82694C0.127827 8.0826 0.00983284 8.36775 0 8.70207Z" fill="#222222"/>
</svg>
