<svg width="29" height="29" viewBox="0 0 29 29" fill="none" xmlns="http://www.w3.org/2000/svg">
<path d="M18.6018 24.505C17.4177 25.6529 16.1248 25.4717 14.8802 24.9279C13.5631 24.3721 12.3547 24.3479 10.9652 24.9279C9.22517 25.6771 8.30683 25.4596 7.26767 24.505C1.371 18.4271 2.241 9.17125 8.93517 8.83292C10.5664 8.9175 11.7023 9.72708 12.6568 9.79958C14.0827 9.50958 15.4481 8.67583 16.9706 8.78458C18.7952 8.92958 20.1727 9.65458 21.0789 10.9596C17.3089 13.2192 18.2031 18.1854 21.6589 19.575C20.9702 21.3875 20.076 23.1879 18.5898 24.5171L18.6018 24.505ZM12.536 8.76042C12.3547 6.06583 14.5418 3.8425 17.0552 3.625C17.4056 6.7425 14.2277 9.0625 12.536 8.76042Z" fill="#222222"/>
</svg>
