<svg width="19" height="19" viewBox="0 0 19 19" fill="none" xmlns="http://www.w3.org/2000/svg">
<path d="M18.0109 12.1569C18.068 12.2597 18.083 12.3807 18.0525 12.4943C18.022 12.6079 17.9485 12.7051 17.8476 12.7655C17.7805 12.8059 17.7033 12.8265 17.6249 12.8249C17.5467 12.8249 17.4699 12.8044 17.4021 12.7653C17.3344 12.7262 17.2781 12.67 17.239 12.6022L15.7917 10.101C14.9305 10.7008 13.971 11.1454 12.9566 11.4147L13.4093 13.9975C13.4287 14.1136 13.4013 14.2327 13.3332 14.3286C13.265 14.4246 13.1616 14.4897 13.0456 14.5096H12.9714C12.866 14.5109 12.7636 14.474 12.6832 14.4058C12.6028 14.3377 12.5496 14.2428 12.5335 14.1385L12.0808 11.5928C11.5584 11.6803 11.0297 11.7249 10.4999 11.7264C9.96798 11.7274 9.43681 11.6852 8.91167 11.6003L8.45893 14.146C8.44143 14.2495 8.38788 14.3436 8.30775 14.4115C8.22762 14.4794 8.12607 14.5168 8.02104 14.5171H7.94682C7.83083 14.4971 7.72747 14.432 7.65932 14.336C7.59117 14.2401 7.56379 14.121 7.58315 14.0049L8.03588 11.4221C7.02321 11.1481 6.06449 10.7039 5.20073 10.1085L3.75346 12.6171C3.71435 12.6848 3.65809 12.741 3.59034 12.7801C3.52259 12.8192 3.44574 12.8398 3.36753 12.8397C3.28956 12.8385 3.21309 12.8181 3.14487 12.7803C3.09416 12.7511 3.04971 12.7122 3.01406 12.6658C2.97841 12.6194 2.95225 12.5664 2.93709 12.5099C2.92192 12.4534 2.91805 12.3944 2.92568 12.3364C2.93332 12.2784 2.95232 12.2224 2.98159 12.1717L4.48823 9.55182C3.95461 9.1021 3.46503 8.60258 3.02612 8.06003C2.9523 7.96751 2.91826 7.84946 2.93149 7.73185C2.94471 7.61424 3.00411 7.50669 3.09663 7.43288C3.18914 7.35906 3.30719 7.32502 3.4248 7.33824C3.54242 7.35147 3.64996 7.41087 3.72378 7.50339C4.19306 8.08999 4.72851 8.62046 5.31948 9.08424L5.34917 9.09909C6.82129 10.242 8.63635 10.854 10.4999 10.8358C12.3635 10.854 14.1786 10.242 15.6507 9.09909L15.673 9.08424C16.2679 8.62244 16.806 8.09179 17.2761 7.50339C17.3499 7.41087 17.4575 7.35147 17.5751 7.33824C17.6927 7.32502 17.8108 7.35906 17.9033 7.43288C17.9958 7.50669 18.0552 7.61424 18.0684 7.73185C18.0816 7.84946 18.0476 7.96751 17.9738 8.06003C17.5324 8.60512 17.0404 9.1071 16.5042 9.55924L18.0109 12.1569Z" fill="black"/>
</svg>
