<svg width="258" height="258" viewBox="0 0 258 258" fill="none" xmlns="http://www.w3.org/2000/svg">
<circle cx="129" cy="129" r="129" fill="#EDEDED"/>
<mask id="mask0_1_842" style="mask-type:alpha" maskUnits="userSpaceOnUse" x="0" y="0" width="258" height="258">
<circle cx="129" cy="129" r="129" fill="#D9D9D9"/>
</mask>
<g mask="url(#mask0_1_842)">
<path d="M127.978 160.965C162.894 160.965 191.229 132.63 191.229 97.7136C191.229 62.7987 162.894 34.4625 127.978 34.4625C93.0612 34.4625 64.7266 62.7972 64.7266 97.7136C64.7266 132.628 93.0612 160.965 127.978 160.965Z" fill="#353535"/>
<path d="M236.448 211.336C234.731 207.329 232.441 203.322 230.151 199.601C217.558 180.999 197.81 168.405 175.773 165.257C172.91 164.971 170.049 165.542 167.759 167.261C156.312 175.56 142.572 180.14 128.262 180.14C113.952 180.14 100.215 175.56 88.7656 167.261C86.4757 165.544 83.6149 164.971 80.7519 165.257C58.7137 168.405 38.9651 180.711 26.3732 199.601C23.7978 203.322 21.7935 207.329 20.0767 211.336C19.2182 213.053 19.5037 215.057 20.3622 216.486C22.6521 220.208 25.2274 224.214 27.803 227.648C31.5242 232.799 35.8167 237.666 40.3964 241.958C44.4032 245.965 48.6953 249.399 53.2751 252.835C75.0261 269.149 101.071 277.734 128.26 277.734C155.449 277.734 181.494 269.147 203.246 252.835C207.826 249.401 212.118 245.68 216.125 241.958C220.704 237.666 224.996 232.799 228.718 227.648C231.293 224.214 233.869 220.493 236.159 216.486C237.021 214.771 237.021 213.055 236.448 211.336H236.448Z" fill="#353535"/>
</g>
<mask id="mask1_1_842" style="mask-type:alpha" maskUnits="userSpaceOnUse" x="0" y="0" width="258" height="258">
<circle cx="129" cy="129" r="129" fill="#D9D9D9"/>
<mask id="mask2_1_842" style="mask-type:alpha" maskUnits="userSpaceOnUse" x="0" y="0" width="258" height="258">
<circle cx="129" cy="129" r="129" fill="#D9D9D9"/>
</mask>
<g mask="url(#mask2_1_842)">
<path d="M127.978 160.965C162.894 160.965 191.229 132.63 191.229 97.7135C191.229 62.7987 162.894 34.4625 127.978 34.4625C93.0612 34.4625 64.7266 62.7972 64.7266 97.7135C64.7266 132.628 93.0612 160.965 127.978 160.965Z" fill="#F8A002"/>
<path d="M236.448 211.336C234.731 207.329 232.441 203.322 230.151 199.601C217.558 180.999 197.81 168.405 175.773 165.257C172.91 164.971 170.049 165.542 167.759 167.261C156.312 175.56 142.572 180.14 128.262 180.14C113.952 180.14 100.215 175.56 88.7656 167.261C86.4757 165.544 83.6149 164.971 80.7519 165.257C58.7137 168.405 38.9651 180.711 26.3732 199.601C23.7978 203.322 21.7935 207.329 20.0767 211.336C19.2182 213.053 19.5037 215.057 20.3622 216.486C22.6521 220.208 25.2274 224.214 27.803 227.648C31.5242 232.799 35.8167 237.666 40.3964 241.958C44.4032 245.965 48.6953 249.399 53.2751 252.835C75.0261 269.149 101.071 277.734 128.26 277.734C155.449 277.734 181.494 269.147 203.246 252.835C207.826 249.401 212.118 245.68 216.125 241.958C220.704 237.666 224.996 232.799 228.718 227.648C231.293 224.214 233.869 220.493 236.159 216.486C237.021 214.771 237.021 213.055 236.448 211.336H236.448Z" fill="#F8A002"/>
</g>
</mask>
<g mask="url(#mask1_1_842)">
<g filter="url(#filter0_b_1_842)">
<rect x="5" y="208" width="248.153" height="100.443" fill="white" fill-opacity="0.7"/>
</g>
</g>
<defs>
<filter id="filter0_b_1_842" x="-191.947" y="11.0534" width="642.046" height="494.336" filterUnits="userSpaceOnUse" color-interpolation-filters="sRGB">
<feFlood flood-opacity="0" result="BackgroundImageFix"/>
<feGaussianBlur in="BackgroundImageFix" stdDeviation="98.4733"/>
<feComposite in2="SourceAlpha" operator="in" result="effect1_backgroundBlur_1_842"/>
<feBlend mode="normal" in="SourceGraphic" in2="effect1_backgroundBlur_1_842" result="shape"/>
</filter>
</defs>
</svg>
