<svg width="6" height="12" viewBox="0 0 6 12" fill="none" xmlns="http://www.w3.org/2000/svg">
<path d="M0.995538 11.9999C1.12361 12.0004 1.25016 11.9721 1.36588 11.9172C1.48159 11.8624 1.58354 11.7823 1.66423 11.6828L5.80498 6.54046C5.93107 6.3871 6 6.19474 6 5.99622C6 5.7977 5.93107 5.60534 5.80498 5.45199L1.51849 0.309616C1.37297 0.134589 1.16387 0.0245216 0.937177 0.00362666C0.710485 -0.0172683 0.484775 0.052721 0.3097 0.198197C0.134626 0.343674 0.0245285 0.552721 0.00362778 0.779351C-0.0172729 1.00598 0.0527353 1.23163 0.198252 1.40665L4.03037 6.00051L0.326847 10.5944C0.222013 10.7202 0.155421 10.8734 0.13495 11.0358C0.114478 11.1983 0.140983 11.3632 0.211329 11.5111C0.281675 11.6589 0.392918 11.7835 0.531895 11.8702C0.670871 11.9568 0.831765 12.0019 0.995538 11.9999Z" fill="#222222"/>
</svg>
