<svg width="20" height="20" viewBox="0 0 20 20" fill="none" xmlns="http://www.w3.org/2000/svg">
<g clip-path="url(#clip0_1_786)">
<path d="M19.4312 8.19764C19.5479 8.86884 19.606 9.54889 19.605 10.2301C19.605 13.2726 18.5175 15.8451 16.625 17.5864H16.6275C14.9725 19.1151 12.6975 20.0001 10 20.0001C7.34783 20.0001 4.8043 18.9466 2.92893 17.0712C1.05357 15.1958 0 12.6523 0 10.0001C0 7.34798 1.05357 4.80444 2.92893 2.92907C4.8043 1.05371 7.34783 0.000141059 10 0.000141059C12.4824 -0.0289319 14.8798 0.903682 16.69 2.60264L13.835 5.45764C12.803 4.47386 11.4256 3.93513 10 3.95764C7.39125 3.95764 5.175 5.71764 4.385 8.08764C3.96613 9.32952 3.96613 10.6745 4.385 11.9164H4.38875C5.1825 14.2826 7.395 16.0426 10.0037 16.0426C11.3512 16.0426 12.5087 15.6976 13.4062 15.0876H13.4025C13.9236 14.7424 14.3694 14.2951 14.7129 13.7729C15.0565 13.2506 15.2906 12.6641 15.4012 12.0489H10V8.19889H19.4312V8.19764Z" fill="#222222"/>
</g>
<defs>
<clipPath id="clip0_1_786">
<rect width="20" height="20" fill="white"/>
</clipPath>
</defs>
</svg>
