<svg width="13" height="13" viewBox="0 0 13 13" fill="none" xmlns="http://www.w3.org/2000/svg">
<path d="M6.5 0C2.9055 0 0 2.9055 0 6.5C0 10.0945 2.9055 13 6.5 13C10.0945 13 13 10.0945 13 6.5C13 2.9055 10.0945 0 6.5 0ZM9.295 9.295C9.23487 9.35526 9.16344 9.40306 9.08481 9.43568C9.00617 9.4683 8.92188 9.48509 8.83675 9.48509C8.75162 9.48509 8.66733 9.4683 8.58869 9.43568C8.51006 9.40306 8.43863 9.35526 8.3785 9.295L6.5 7.4165L4.6215 9.295C4.49996 9.41653 4.33513 9.48481 4.16325 9.48481C3.99137 9.48481 3.82654 9.41653 3.705 9.295C3.58346 9.17346 3.51519 9.00863 3.51519 8.83675C3.51519 8.75165 3.53195 8.66737 3.56452 8.58875C3.59709 8.51012 3.64482 8.43868 3.705 8.3785L5.5835 6.5L3.705 4.6215C3.58346 4.49996 3.51519 4.33513 3.51519 4.16325C3.51519 3.99137 3.58346 3.82654 3.705 3.705C3.82654 3.58346 3.99137 3.51519 4.16325 3.51519C4.33513 3.51519 4.49996 3.58346 4.6215 3.705L6.5 5.5835L8.3785 3.705C8.43868 3.64482 8.51012 3.59709 8.58875 3.56452C8.66737 3.53195 8.75165 3.51519 8.83675 3.51519C8.92185 3.51519 9.00613 3.53195 9.08475 3.56452C9.16338 3.59709 9.23482 3.64482 9.295 3.705C9.35518 3.76518 9.40291 3.83662 9.43548 3.91525C9.46805 3.99387 9.48481 4.07814 9.48481 4.16325C9.48481 4.24835 9.46805 4.33263 9.43548 4.41125C9.40291 4.48988 9.35518 4.56132 9.295 4.6215L7.4165 6.5L9.295 8.3785C9.542 8.6255 9.542 9.0415 9.295 9.295Z" fill="#606060"/>
</svg>
